PathFileType	4	(X/Y/Z)	C:\Users\86182\Documents\cortex\Trimmed_M4_H14.trc
DataRate	CameraRate	NumFrames	NumMarkers	Units	OrigDataRate	OrigDataStartFrame	OrigNumFrames
100.00	100.00	       144	2	mm	100.00	1	       901
Frame#	Time	gripper			box			
		X1	Y1	Z1	X2	Y2	Z2	

1	0.000	277.02890	150.16568	192.30084	280.82306	146.61972	57.29818	
2	0.010	277.02762	150.16576	192.30042	280.82434	146.61960	57.29642	
3	0.020	277.02838	150.16481	192.29927	280.82639	146.61974	57.29486	
4	0.030	277.03079	150.16304	192.29767	280.82840	146.62032	57.29357	
5	0.040	277.03430	150.16078	192.29587	280.82962	146.62128	57.29247	
6	0.050	277.03842	150.15843	192.29404	280.82999	146.62238	57.29132	
7	0.060	277.04263	150.15633	192.29233	280.82993	146.62328	57.28989	
8	0.070	277.04697	150.15456	192.29077	280.82986	146.62376	57.28823	
9	0.080	277.05139	150.15298	192.28946	280.83008	146.62375	57.28658	
10	0.090	277.05545	150.15167	192.28848	280.83072	146.62347	57.28510	
11	0.100	277.05835	150.15091	192.28795	280.83218	146.62338	57.28374	
12	0.110	277.05960	150.15089	192.28773	280.83475	146.62372	57.28235	
13	0.120	277.05939	150.15141	192.28763	280.83804	146.62422	57.28106	
14	0.130	277.05820	150.15211	192.28748	280.84131	146.62448	57.28014	
15	0.140	277.05640	150.15263	192.28725	280.84390	146.62436	57.27974	
16	0.150	277.05447	150.15274	192.28693	280.84561	146.62381	57.27976	
17	0.160	277.05304	150.15236	192.28654	280.84634	146.62260	57.27999	
18	0.170	277.05240	150.15163	192.28621	280.84631	146.62045	57.28020	
19	0.180	277.05252	150.15073	192.28609	280.84595	146.61745	57.28017	
20	0.190	277.05334	150.14992	192.28622	280.84567	146.61395	57.27975	
21	0.200	277.05472	150.14935	192.28658	280.84546	146.61049	57.27899	
22	0.210	277.05624	150.14919	192.28711	280.84482	146.60759	57.27822	
23	0.220	277.05746	150.14949	192.28778	280.84317	146.60582	57.27784	
24	0.230	277.05807	150.15022	192.28842	280.84033	146.60539	57.27805	
25	0.240	277.05814	150.15114	192.28871	280.83676	146.60623	57.27879	
26	0.250	277.05789	150.15207	192.28842	280.83337	146.60811	57.27980	
27	0.260	277.05789	150.15274	192.28764	280.83145	146.61078	57.28061	
28	0.270	277.05829	150.15300	192.28670	280.83182	146.61392	57.28083	
29	0.280	277.05893	150.15280	192.28601	280.83447	146.61725	57.28037	
30	0.290	277.05954	150.15237	192.28584	280.83850	146.62042	57.27943	
31	0.300	277.06018	150.15195	192.28621	280.84256	146.62326	57.27830	
32	0.310	277.06085	150.15163	192.28702	280.84555	146.62572	57.27721	
33	0.320	277.06125	150.15147	192.28812	280.84702	146.62761	57.27621	
34	0.330	277.06079	150.15157	192.28934	280.84760	146.62845	57.27525	
35	0.340	277.05902	150.15187	192.29048	280.84848	146.62762	57.27415	
36	0.350	277.05624	150.15213	192.29146	280.85043	146.62500	57.27288	
37	0.360	277.05298	150.15207	192.29222	280.85315	146.62109	57.27157	
38	0.370	277.04977	150.15176	192.29271	280.85580	146.61665	57.27048	
39	0.380	277.04691	150.15178	192.29297	280.85806	146.61240	57.26974	
40	0.390	277.04440	150.15269	192.29308	280.86023	146.60895	57.26932	
41	0.400	277.04236	150.15465	192.29315	280.86276	146.60677	57.26924	
42	0.410	277.04102	150.15700	192.29320	280.86575	146.60576	57.26945	
43	0.420	277.04059	150.15883	192.29311	280.86899	146.60551	57.26970	
44	0.430	277.04089	150.15948	192.29294	280.87183	146.60594	57.26965	
45	0.440	277.04153	150.15892	192.29282	280.87323	146.60728	57.26922	
46	0.450	277.04221	150.15744	192.29291	280.87225	146.60954	57.26866	
47	0.460	277.04257	150.15553	192.29329	280.86874	146.61235	57.26845	
48	0.470	277.04257	150.15364	192.29384	280.86346	146.61511	57.26894	
49	0.480	277.04245	150.15233	192.29437	280.85803	146.61719	57.27020	
50	0.490	277.04263	150.15196	192.29465	280.85403	146.61826	57.27198	
51	0.500	277.04340	150.15233	192.29451	280.85208	146.61855	57.27402	
52	0.510	277.04498	150.15291	192.29379	280.85168	146.61859	57.27614	
53	0.520	277.04727	150.15334	192.29253	280.85196	146.61864	57.27812	
54	0.530	277.04968	150.15358	192.29108	280.85220	146.61873	57.27969	
55	0.540	277.05173	150.15353	192.28992	280.85226	146.61899	57.28062	
56	0.550	277.05316	150.15305	192.28925	280.85214	146.61960	57.28081	
57	0.560	277.05396	150.15221	192.28896	280.85190	146.62062	57.28028	
58	0.570	277.05457	150.15126	192.28870	280.85184	146.62181	57.27929	
59	0.580	277.05548	150.15030	192.28818	280.85214	146.62297	57.27827	
60	0.590	277.05688	150.14922	192.28749	280.85257	146.62401	57.27767	
61	0.600	277.05826	150.14804	192.28708	280.85269	146.62463	57.27768	
62	0.610	277.05878	150.14687	192.28738	280.85245	146.62448	57.27818	
63	0.620	277.05768	150.14587	192.28859	280.85196	146.62357	57.27891	
64	0.630	277.05484	150.14525	192.29063	280.85141	146.62238	57.27969	
65	0.640	277.05096	150.14510	192.29312	280.85095	146.62144	57.28038	
66	0.650	277.04727	150.14532	192.29535	280.85083	146.62088	57.28071	
67	0.660	277.04480	150.14578	192.29665	280.85138	146.62041	57.28029	
68	0.670	277.04382	150.14636	192.29663	280.85294	146.61971	57.27890	
69	0.680	277.04413	150.14729	192.29541	280.85522	146.61896	57.27674	
70	0.690	277.04538	150.14873	192.29349	280.85754	146.61880	57.27436	
71	0.700	277.04752	150.15044	192.29132	280.85910	146.61975	57.27235	
72	0.710	277.05051	150.15189	192.28918	280.85953	146.62195	57.27109	
73	0.720	277.05396	150.15276	192.28732	280.85892	146.62521	57.27073	
74	0.730	277.05719	150.15320	192.28589	280.85767	146.62875	57.27135	
75	0.740	277.05923	150.15369	192.28500	280.85626	146.63129	57.27291	
76	0.750	277.05914	150.15475	192.28471	280.85468	146.63168	57.27519	
77	0.760	277.05612	150.15665	192.28510	280.85220	146.62943	57.27789	
78	0.770	277.04990	150.15930	192.28630	280.84784	146.62434	57.28055	
79	0.780	277.04019	150.16254	192.28865	280.84055	146.61642	57.28271	
80	0.790	277.02682	150.16591	192.29251	280.82901	146.60582	57.28410	
81	0.800	277.00980	150.16875	192.29825	280.81216	146.59277	57.28456	
82	0.810	276.98956	150.17044	192.30621	280.79004	146.57751	57.28382	
83	0.820	276.96725	150.17053	192.31682	280.76392	146.56009	57.28161	
84	0.830	276.94473	150.16856	192.33054	280.73538	146.54053	57.27812	
85	0.840	276.92487	150.16400	192.34770	280.70572	146.51923	57.27420	
86	0.850	276.91171	150.15601	192.36804	280.67581	146.49686	57.27100	
87	0.860	276.91104	150.14334	192.39024	280.64581	146.47401	57.26958	
88	0.870	276.93066	150.12447	192.41174	280.61572	146.45113	57.27101	
89	0.880	276.98032	150.09784	192.42914	280.58582	146.42892	57.27658	
90	0.890	277.07047	150.06221	192.43907	280.55731	146.40868	57.28809	
91	0.900	277.20926	150.01717	192.43964	280.53174	146.39192	57.30816	
92	0.910	277.39725	149.96391	192.43350	280.51050	146.38017	57.34018	
93	0.920	277.61826	149.90686	192.43253	280.49521	146.37479	57.38779	
94	0.930	277.83728	149.85378	192.45799	280.48776	146.37653	57.45468	
95	0.940	278.01758	149.81194	192.53152	280.48965	146.38510	57.54506	
96	0.950	278.13757	149.78444	192.66580	280.50067	146.39919	57.66390	
97	0.960	278.19803	149.76970	192.86075	280.51913	146.41707	57.81602	
98	0.970	278.23251	149.76109	193.09952	280.54279	146.43689	58.00471	
99	0.980	278.29407	149.74986	193.35509	280.56827	146.45734	58.23134	
100	0.990	278.40665	149.73341	193.61259	280.58997	146.47852	58.49593	
101	1.000	278.53888	149.71933	193.88312	280.60156	146.50148	58.79717	
102	1.010	278.63535	149.71861	194.19066	280.59964	146.52705	59.13157	
103	1.020	278.66934	149.73459	194.54648	280.58557	146.55557	59.49342	
104	1.030	278.65964	149.76045	194.93979	280.56287	146.58746	59.87640	
105	1.040	278.63138	149.78943	195.35582	280.53439	146.62303	60.27550	
106	1.050	278.56735	149.82565	195.79874	280.50171	146.66197	60.68766	
107	1.060	278.41537	149.88115	196.28807	280.46622	146.70306	61.11020	
108	1.070	278.14639	149.96175	196.83313	280.43069	146.74422	61.53890	
109	1.080	277.79211	150.05928	197.41833	280.39981	146.78276	61.96934	
110	1.090	277.42325	150.15791	198.01372	280.37778	146.81590	62.40007	
111	1.100	277.10468	150.24431	198.59251	280.36487	146.84203	62.83302	
112	1.110	276.87546	150.31021	199.13736	280.35818	146.86159	63.26929	
113	1.120	276.75525	150.34979	199.63741	280.35480	146.87595	63.70599	
114	1.130	276.75342	150.35916	200.08598	280.35403	146.88490	64.13802	
115	1.140	276.87408	150.33781	200.47986	280.35706	146.88669	64.56248	
116	1.150	277.11719	150.28859	200.81905	280.36533	146.88046	64.98000	
117	1.160	277.47238	150.21669	201.10768	280.37970	146.86829	65.39304	
118	1.170	277.90607	150.12981	201.35791	280.40109	146.85416	65.80328	
119	1.180	278.35461	150.04004	201.59500	280.43042	146.84186	66.20989	
120	1.190	278.74109	149.96243	201.85361	280.46622	146.83327	66.61092	
121	1.200	279.00949	149.90897	202.16176	280.50378	146.82748	67.00695	
122	1.210	279.14825	149.88310	202.52646	280.53735	146.82246	67.40323	
123	1.220	279.18683	149.87956	202.93523	280.56488	146.81781	67.80652	
124	1.230	279.16489	149.88985	203.37198	280.58896	146.81512	68.21942	
125	1.240	279.10550	149.90799	203.82884	280.61234	146.81535	68.63913	
126	1.250	279.02826	149.92938	204.29887	280.63437	146.81718	69.06195	
127	1.260	278.97314	149.94649	204.76546	280.65237	146.81865	69.48711	
128	1.270	278.98056	149.95163	205.21033	280.66473	146.81918	69.91563	
129	1.280	279.04694	149.94485	205.63141	280.67099	146.81972	70.34750	
130	1.290	279.12408	149.93445	206.04478	280.67010	146.82170	70.78115	
131	1.300	279.16446	149.92944	206.46878	280.65930	146.82654	71.21405	
132	1.310	279.14471	149.93565	206.91345	280.63535	146.83549	71.64364	
133	1.320	279.04419	149.95924	207.38622	280.59753	146.84863	72.06859	
134	1.330	278.83224	150.00749	207.89688	280.54971	146.86441	72.48992	
135	1.340	278.49997	150.08148	208.44815	280.49777	146.88052	72.91032	
136	1.350	278.09134	150.17070	209.02458	280.44565	146.89551	73.33150	
137	1.360	277.68628	150.25807	209.59793	280.39468	146.90933	73.75189	
138	1.370	277.35712	150.32915	210.14212	280.34738	146.92213	74.16779	
139	1.380	277.14490	150.37611	210.64061	280.30927	146.93300	74.57702	
140	1.390	277.06406	150.39603	211.08543	280.28580	146.94028	74.98221	
141	1.400	277.11346	150.38867	211.47685	280.27893	146.94269	75.38940	
142	1.410	277.28088	150.35564	211.82358	280.28760	146.93993	75.80310	
143	1.420	277.53983	150.30096	212.14044	280.31049	146.93263	76.22295	
144	1.430	277.85135	150.23193	212.44331	280.34708	146.92133	76.64536	
